<svg width="278" height="70" viewBox="0 0 278 70" fill="none" xmlns="http://www.w3.org/2000/svg">
<path d="M15.8503 42.5332C15.8503 42.9063 15.7397 43.271 15.5324 43.5812C15.3252 43.8913 15.0306 44.1331 14.686 44.2759C14.3413 44.4186 13.962 44.456 13.5962 44.3832C13.2303 44.3104 12.8942 44.1308 12.6304 43.867C12.3666 43.6032 12.187 43.2671 12.1142 42.9012C12.0414 42.5353 12.0788 42.1561 12.2215 41.8114C12.3643 41.4668 12.606 41.1722 12.9162 40.9649C13.2264 40.7577 13.5911 40.6471 13.9641 40.6471C14.4644 40.6471 14.9441 40.8458 15.2979 41.1995C15.6516 41.5532 15.8503 42.033 15.8503 42.5332ZM27.5447 40.6471C27.1716 40.6471 26.807 40.7577 26.4968 40.9649C26.1866 41.1722 25.9449 41.4668 25.8021 41.8114C25.6593 42.1561 25.622 42.5353 25.6948 42.9012C25.7675 43.2671 25.9472 43.6032 26.211 43.867C26.4748 44.1308 26.8108 44.3104 27.1767 44.3832C27.5426 44.456 27.9219 44.4186 28.2665 44.2759C28.6112 44.1331 28.9058 43.8913 29.113 43.5812C29.3203 43.271 29.4309 42.9063 29.4309 42.5332C29.4309 42.033 29.2322 41.5532 28.8784 41.1995C28.5247 40.8458 28.045 40.6471 27.5447 40.6471ZM39.9502 42.6691C39.6015 42.8288 39.2227 42.9117 38.8392 42.9124C38.4909 42.9116 38.1463 42.8406 37.8261 42.7035C37.5058 42.5664 37.2166 42.3661 36.9757 42.1145V50.8325C36.9757 52.7334 36.2205 54.5565 34.8763 55.9007C33.5322 57.2449 31.7091 58 29.8081 58H11.7007C9.79977 58 7.97668 57.2449 6.63251 55.9007C5.28834 54.5565 4.53319 52.7334 4.53319 50.8325V42.1145C4.29161 42.3656 4.00193 42.5655 3.68144 42.7023C3.36095 42.839 3.0162 42.9098 2.66775 42.9105C2.28492 42.9096 1.90673 42.8266 1.55867 42.6672C1.01541 42.4286 0.569789 42.0119 0.29543 41.4858C0.0210706 40.9597 -0.0656068 40.3558 0.0497186 39.7738L3.14684 23.1753C3.21322 22.8214 3.35129 22.4848 3.55255 22.1862C3.75381 21.8876 4.01402 21.6333 4.31717 21.439C4.62032 21.2446 4.96002 21.1144 5.31537 21.0562C5.67073 20.9979 6.03423 21.013 6.38354 21.1005L6.42881 21.1137L16.3898 24.0486H25.1191L35.0763 21.1231L35.1215 21.1099C35.4708 21.0225 35.8343 21.0074 36.1897 21.0656C36.5451 21.1238 36.8847 21.2541 37.1879 21.4484C37.4911 21.6427 37.7513 21.897 37.9525 22.1956C38.1538 22.4942 38.2918 22.8308 38.3582 23.1847L41.4553 39.7832C41.5694 40.3636 41.4826 40.9656 41.209 41.4902C40.9354 42.0147 40.4915 42.4304 39.9502 42.6691ZM14.3187 25.7971L5.82334 23.2941C5.77551 23.2829 5.72588 23.2816 5.67753 23.2904C5.62918 23.2991 5.58315 23.3177 5.5423 23.345C5.49912 23.373 5.46211 23.4096 5.43357 23.4524C5.40502 23.4952 5.38554 23.5434 5.37632 23.594L2.27919 40.1925C2.26315 40.2756 2.27555 40.3618 2.31441 40.437C2.35327 40.5123 2.41633 40.5723 2.49342 40.6074C2.57052 40.6424 2.65718 40.6505 2.73943 40.6303C2.82169 40.6102 2.89477 40.5629 2.94691 40.4962L14.3187 25.7971ZM34.7122 50.8325V39.2192L24.7267 26.312H16.7821L6.79662 39.2192V50.8325C6.79662 52.1331 7.3133 53.3805 8.23299 54.3002C9.15269 55.2199 10.4001 55.7366 11.7007 55.7366H19.6227V52.8092L16.9368 50.1233C16.7369 49.9087 16.628 49.625 16.6332 49.3318C16.6384 49.0386 16.7572 48.7589 16.9645 48.5515C17.1719 48.3442 17.4516 48.2254 17.7448 48.2202C18.038 48.215 18.3217 48.3239 18.5363 48.5238L20.7544 50.7401L22.9726 48.5238C23.1871 48.3239 23.4709 48.215 23.7641 48.2202C24.0572 48.2254 24.337 48.3442 24.5443 48.5515C24.7517 48.7589 24.8705 49.0386 24.8756 49.3318C24.8808 49.625 24.772 49.9087 24.5721 50.1233L21.8861 52.8092V55.7366H29.8081C31.1088 55.7366 32.3562 55.2199 33.2758 54.3002C34.1955 53.3805 34.7122 52.1331 34.7122 50.8325ZM39.2391 40.1944L36.142 23.5959C36.1325 23.5456 36.1129 23.4978 36.0844 23.4553C36.0558 23.4128 36.0189 23.3766 35.976 23.3488C35.8921 23.297 35.7917 23.2788 35.6949 23.2979L27.2071 25.7933L38.5846 40.5056C38.6388 40.5668 38.7115 40.6086 38.7916 40.6249C38.8717 40.6412 38.9549 40.6311 39.0288 40.596C39.1026 40.5608 39.1631 40.5027 39.201 40.4303C39.2389 40.3578 39.2523 40.2751 39.2391 40.1944Z" fill="black"/>
<path d="M58.0763 43.2461C58.0763 42.8164 58.0568 42.2565 58.0177 41.5664C57.9917 40.8763 57.9526 40.1146 57.9005 39.2812C57.8484 38.4479 57.7898 37.5625 57.7247 36.625C57.6596 35.6875 57.588 34.7565 57.5099 33.832C57.4318 32.9076 57.3536 32.0156 57.2755 31.1562C57.2104 30.2839 57.1453 29.4961 57.0802 28.793C56.976 27.7904 56.8328 27.0547 56.6505 26.5859C56.4682 26.1172 56.1687 25.8828 55.7521 25.8828C55.3615 25.8828 55.101 25.9935 54.9708 26.2148C54.8536 26.4362 54.782 26.7096 54.756 27.0352C54.743 27.3607 54.7365 27.7188 54.7365 28.1094C54.7495 28.487 54.6909 28.8385 54.5607 29.1641C54.4435 29.4896 54.2156 29.763 53.8771 29.9844C53.5385 30.2057 53.0177 30.3164 52.3146 30.3164C51.8198 30.3164 51.3966 30.1146 51.045 29.7109C50.6935 29.2943 50.5177 28.6953 50.5177 27.9141C50.5177 26.8203 50.8432 25.8307 51.4943 24.9453C52.1323 24.0469 53.0372 23.2852 54.2091 22.6602C55.381 22.0221 56.7937 21.5273 58.4474 21.1758C60.101 20.8242 61.937 20.6484 63.9552 20.6484C65.4005 20.6484 66.7351 20.8112 67.9591 21.1367C69.1831 21.4492 70.2378 21.8919 71.1232 22.4648C72.0216 23.0247 72.7247 23.6953 73.2325 24.4766C73.7404 25.2448 73.9943 26.0846 73.9943 26.9961C73.9943 28.0247 73.6948 29.0078 73.0958 29.9453C72.4969 30.8828 71.67 31.7422 70.6154 32.5234C69.5737 33.3047 68.3432 33.9883 66.924 34.5742C65.5047 35.1471 63.9812 35.5964 62.3536 35.9219C61.8979 36 61.67 36.2799 61.67 36.7617C61.67 37.0872 61.6896 37.4974 61.7286 37.9922C61.7807 38.474 61.8263 38.9818 61.8654 39.5156C61.9174 40.0495 61.963 40.5768 62.0021 41.0977C62.0542 41.6185 62.0802 42.0807 62.0802 42.4844C62.0802 43.2135 61.9109 43.7344 61.5724 44.0469C61.2338 44.3594 60.7325 44.5156 60.0685 44.5156C59.4435 44.5156 58.9552 44.4049 58.6036 44.1836C58.2521 43.9753 58.0763 43.6628 58.0763 43.2461ZM69.9513 27.5625C69.9513 27.1198 69.7625 26.6966 69.3849 26.293C69.0073 25.8893 68.4995 25.5312 67.8615 25.2188C67.2234 24.9062 66.4812 24.6589 65.6349 24.4766C64.8016 24.2943 63.9226 24.2031 62.9982 24.2031C62.5424 24.2031 62.1583 24.2227 61.8458 24.2617C61.5463 24.2878 61.3055 24.3398 61.1232 24.418C60.9409 24.4961 60.8107 24.6003 60.7325 24.7305C60.6674 24.8477 60.6349 25.0039 60.6349 25.1992C60.6349 25.3294 60.6544 25.6354 60.6935 26.1172C60.7325 26.5859 60.7846 27.1328 60.8497 27.7578C60.9148 28.3828 60.9799 29.0404 61.045 29.7305C61.1232 30.4076 61.2013 31.0195 61.2794 31.5664C61.3185 31.9701 61.3706 32.237 61.4357 32.3672C61.5138 32.4974 61.631 32.5625 61.7872 32.5625C62.2299 32.5625 62.7378 32.4909 63.3107 32.3477C63.8836 32.1914 64.4695 31.9896 65.0685 31.7422C65.6805 31.4818 66.2729 31.1888 66.8458 30.8633C67.4318 30.5247 67.9526 30.1732 68.4083 29.8086C68.8771 29.431 69.2482 29.0534 69.5216 28.6758C69.8081 28.2852 69.9513 27.9141 69.9513 27.5625ZM92.3099 23.9297C93.026 23.9297 93.7161 24.0404 94.3802 24.2617C95.0443 24.4831 95.6302 24.7891 96.138 25.1797C96.6458 25.5703 97.0495 26.0391 97.3489 26.5859C97.6614 27.1328 97.8177 27.7383 97.8177 28.4023C97.8177 28.6758 97.7526 28.9427 97.6224 29.2031C97.5052 29.4505 97.3424 29.6719 97.1341 29.8672C96.9258 30.0495 96.6849 30.1992 96.4114 30.3164C96.151 30.4206 95.8776 30.4727 95.5911 30.4727C95.5651 30.4727 95.5391 30.4792 95.513 30.4922C95.5 30.4922 95.4805 30.4922 95.4544 30.4922C95.4284 30.5052 95.4023 30.5117 95.3763 30.5117L95.4544 32.0742C95.5065 33.9362 95.7669 35.2969 96.2357 36.1562C96.7174 37.0156 97.3424 37.4453 98.1107 37.4453C98.3841 37.4453 98.625 37.4193 98.8333 37.3672C99.0547 37.3151 99.2565 37.2565 99.4388 37.1914C99.6341 37.1133 99.8164 37.0482 99.9857 36.9961C100.155 36.944 100.324 36.918 100.493 36.918C100.793 36.918 101.053 37.0482 101.275 37.3086C101.509 37.569 101.626 37.8815 101.626 38.2461C101.626 38.6107 101.483 38.9753 101.197 39.3398C100.923 39.7044 100.559 40.0365 100.103 40.3359C99.6471 40.6224 99.1328 40.8568 98.5599 41.0391C97.987 41.2214 97.4075 41.3125 96.8216 41.3125C95.806 41.3125 94.9141 40.8958 94.1458 40.0625C93.3776 39.2161 92.8307 37.9792 92.5052 36.3516C92.4271 36.0911 92.3229 35.9609 92.1927 35.9609C92.0364 35.9609 91.8997 36.0391 91.7825 36.1953C90.4935 37.8229 89.1198 39.0469 87.6614 39.8672C86.2031 40.6745 84.7643 41.0781 83.345 41.0781C82.681 41.0781 82.082 40.9805 81.5482 40.7852C81.0143 40.5898 80.5586 40.3164 80.181 39.9648C79.8164 39.6003 79.5299 39.1641 79.3216 38.6562C79.1263 38.1354 79.0286 37.556 79.0286 36.918C79.0286 36.0195 79.2239 35.0755 79.6146 34.0859C80.0182 33.0964 80.5586 32.1198 81.2357 31.1562C81.9128 30.1927 82.694 29.2747 83.5794 28.4023C84.4779 27.5299 85.4154 26.7617 86.3919 26.0977C87.3815 25.4336 88.3841 24.9062 89.3997 24.5156C90.4154 24.125 91.3854 23.9297 92.3099 23.9297ZM91.6654 30.6875C91.8997 30.2448 92.1146 29.9258 92.3099 29.7305C92.5052 29.5221 92.7851 29.3854 93.1497 29.3203C93.4362 29.2812 93.5794 29.1901 93.5794 29.0469C93.5794 28.9427 93.5404 28.832 93.4622 28.7148C93.2148 28.3763 92.9544 28.0833 92.681 27.8359C92.4075 27.5755 92.043 27.4453 91.5872 27.4453C91.0924 27.4453 90.5391 27.5885 89.9271 27.875C89.3151 28.1615 88.6901 28.5456 88.0521 29.0273C87.4271 29.4961 86.8086 30.0365 86.1966 30.6484C85.5976 31.2474 85.0638 31.8659 84.595 32.5039C84.1263 33.1419 83.7487 33.7734 83.4622 34.3984C83.1758 35.0234 83.0325 35.5833 83.0325 36.0781C83.0325 36.5208 83.1497 36.8659 83.3841 37.1133C83.6315 37.3607 83.9635 37.4844 84.3802 37.4844C85.4479 37.4844 86.6133 36.918 87.8763 35.7852C89.1393 34.6523 90.4023 32.9531 91.6654 30.6875ZM119.493 32.6406C119.493 30.5833 119.74 29.0013 120.235 27.8945C120.73 26.7878 121.439 26.2344 122.364 26.2344C123.835 26.2344 124.571 27.5039 124.571 30.043C124.571 30.9414 124.519 31.7878 124.415 32.582C124.323 33.3763 124.187 34.1445 124.004 34.8867C123.978 34.9909 123.959 35.0885 123.946 35.1797C123.933 35.2708 123.926 35.3555 123.926 35.4336C123.926 35.707 123.978 35.9479 124.083 36.1562C124.734 37.8099 125.938 38.6367 127.696 38.6367C128.321 38.6367 128.907 38.5 129.454 38.2266C130.001 37.9531 130.476 37.582 130.879 37.1133C131.283 36.6315 131.596 36.0716 131.817 35.4336C132.051 34.7956 132.168 34.1055 132.168 33.3633C132.168 32.5299 132.071 31.8398 131.876 31.293C131.68 30.7331 131.465 30.2578 131.231 29.8672C130.997 29.4635 130.782 29.099 130.586 28.7734C130.391 28.4349 130.293 28.0573 130.293 27.6406C130.293 27.4453 130.378 27.2435 130.547 27.0352C130.73 26.8138 130.951 26.612 131.211 26.4297C131.485 26.2474 131.778 26.0977 132.09 25.9805C132.416 25.8633 132.722 25.8047 133.008 25.8047C133.386 25.8047 133.757 26.013 134.122 26.4297C134.499 26.8464 134.831 27.3932 135.118 28.0703C135.417 28.7344 135.652 29.4961 135.821 30.3555C136.003 31.2148 136.094 32.0807 136.094 32.9531C136.094 34.2161 135.86 35.4076 135.391 36.5273C134.922 37.6471 134.284 38.6302 133.477 39.4766C132.67 40.3229 131.726 40.9935 130.645 41.4883C129.577 41.9831 128.445 42.2305 127.247 42.2305C126.231 42.2305 125.326 42.0482 124.532 41.6836C123.751 41.332 123.028 40.707 122.364 39.8086C122.26 39.6393 122.155 39.5221 122.051 39.457C121.947 39.3919 121.843 39.3594 121.739 39.3594C121.609 39.3594 121.491 39.3919 121.387 39.457C121.283 39.5221 121.172 39.6393 121.055 39.8086C120.17 40.9674 119.219 41.7943 118.204 42.2891C117.201 42.7839 116.094 43.0312 114.883 43.0312C113.542 43.0312 112.331 42.6602 111.251 41.918C110.183 41.1888 109.271 40.1471 108.516 38.793C107.761 37.4388 107.182 35.7982 106.778 33.8711C106.374 31.931 106.172 29.763 106.172 27.3672C106.172 26.3906 106.211 25.5833 106.29 24.9453C106.368 24.2943 106.511 23.7865 106.719 23.4219C106.928 23.0443 107.201 22.7839 107.54 22.6406C107.878 22.4844 108.314 22.4062 108.848 22.4062C109.408 22.4062 109.812 22.5169 110.059 22.7383C110.32 22.9466 110.45 23.3112 110.45 23.832C110.45 24.2357 110.411 24.6914 110.333 25.1992C110.254 25.694 110.215 26.1237 110.215 26.4883C110.215 28.3763 110.346 30.1146 110.606 31.7031C110.879 33.2917 111.251 34.6589 111.719 35.8047C112.201 36.9505 112.767 37.8424 113.418 38.4805C114.083 39.1185 114.812 39.4375 115.606 39.4375C117.377 39.4375 118.685 38.5326 119.532 36.7227C119.61 36.5794 119.662 36.4492 119.688 36.332C119.714 36.2018 119.727 36.0651 119.727 35.9219C119.727 35.8438 119.727 35.7656 119.727 35.6875C119.727 35.5964 119.714 35.4987 119.688 35.3945C119.623 34.8997 119.571 34.431 119.532 33.9883C119.506 33.5326 119.493 33.0833 119.493 32.6406ZM144.703 18.4414C144.703 17.7513 144.898 17.2695 145.289 16.9961C145.679 16.7096 146.324 16.5664 147.222 16.5664C147.548 16.5664 147.821 16.599 148.043 16.6641C148.277 16.7161 148.472 16.8203 148.629 16.9766C148.798 17.1328 148.928 17.3411 149.019 17.6016C149.123 17.849 149.208 18.168 149.273 18.5586C149.429 19.7695 149.599 21.0195 149.781 22.3086C149.976 23.5977 150.178 24.8932 150.386 26.1953C150.465 26.7812 150.771 27.0742 151.304 27.0742C151.448 27.0742 151.682 27.0612 152.008 27.0352C152.346 26.9961 152.743 26.957 153.199 26.918C153.655 26.8659 154.143 26.8138 154.664 26.7617C155.198 26.7096 155.725 26.6641 156.246 26.625C156.78 26.5729 157.281 26.5339 157.75 26.5078C158.232 26.4688 158.655 26.4492 159.019 26.4492C159.306 26.4492 159.534 26.5078 159.703 26.625C159.872 26.7292 160.002 26.8724 160.093 27.0547C160.198 27.224 160.263 27.4193 160.289 27.6406C160.328 27.849 160.347 28.0638 160.347 28.2852C160.347 28.4805 160.308 28.6823 160.23 28.8906C160.165 29.099 160.067 29.2878 159.937 29.457C159.82 29.6133 159.67 29.7435 159.488 29.8477C159.306 29.9518 159.097 30.0039 158.863 30.0039C157.73 30.0039 156.584 30.043 155.426 30.1211C154.28 30.1862 153.134 30.2773 151.988 30.3945C151.402 30.4727 151.109 30.7656 151.109 31.2734C151.109 31.3125 151.116 31.3646 151.129 31.4297C151.142 31.4818 151.148 31.5273 151.148 31.5664C151.304 32.6992 151.448 33.7604 151.578 34.75C151.721 35.7396 151.838 36.625 151.929 37.4062C152.034 38.1745 152.112 38.819 152.164 39.3398C152.229 39.8477 152.261 40.1862 152.261 40.3555C152.261 40.8242 152.216 41.2148 152.125 41.5273C152.034 41.8529 151.884 42.1133 151.676 42.3086C151.467 42.5169 151.187 42.6602 150.836 42.7383C150.497 42.8294 150.067 42.875 149.547 42.875C149.052 42.875 148.687 42.7578 148.453 42.5234C148.218 42.2891 148.088 41.931 148.062 41.4492C147.984 39.9128 147.86 38.3698 147.691 36.8203C147.522 35.2578 147.327 33.7018 147.105 32.1523C146.988 31.5924 146.695 31.3125 146.226 31.3125C146.187 31.3125 146.142 31.319 146.09 31.332C146.037 31.3451 145.992 31.3516 145.953 31.3516C145.146 31.5339 144.384 31.7161 143.668 31.8984C142.952 32.0807 142.281 32.276 141.656 32.4844C141.304 32.6016 140.992 32.6862 140.718 32.7383C140.445 32.7773 140.198 32.7969 139.976 32.7969C139.677 32.7969 139.455 32.6667 139.312 32.4062C139.169 32.1328 139.097 31.7943 139.097 31.3906C139.097 31.2474 139.11 31.0846 139.136 30.9023C139.162 30.707 139.215 30.5182 139.293 30.3359C139.358 30.1406 139.462 29.9648 139.605 29.8086C139.735 29.6393 139.918 29.5026 140.152 29.3984C140.699 29.1771 141.428 28.9492 142.34 28.7148C143.251 28.4674 144.28 28.2396 145.426 28.0312C145.686 27.9661 145.888 27.862 146.031 27.7188C146.187 27.5625 146.265 27.3346 146.265 27.0352C146.265 26.9701 146.265 26.9049 146.265 26.8398C146.265 26.7617 146.252 26.6836 146.226 26.6055C146.018 25.4076 145.816 24.3203 145.621 23.3438C145.439 22.3542 145.276 21.5078 145.133 20.8047C145.002 20.1016 144.898 19.5482 144.82 19.1445C144.742 18.7409 144.703 18.5065 144.703 18.4414ZM176.28 23.9297C176.996 23.9297 177.686 24.0404 178.351 24.2617C179.015 24.4831 179.601 24.7891 180.108 25.1797C180.616 25.5703 181.02 26.0391 181.319 26.5859C181.632 27.1328 181.788 27.7383 181.788 28.4023C181.788 28.6758 181.723 28.9427 181.593 29.2031C181.476 29.4505 181.313 29.6719 181.104 29.8672C180.896 30.0495 180.655 30.1992 180.382 30.3164C180.121 30.4206 179.848 30.4727 179.561 30.4727C179.535 30.4727 179.509 30.4792 179.483 30.4922C179.47 30.4922 179.451 30.4922 179.425 30.4922C179.399 30.5052 179.373 30.5117 179.347 30.5117L179.425 32.0742C179.477 33.9362 179.737 35.2969 180.206 36.1562C180.688 37.0156 181.313 37.4453 182.081 37.4453C182.354 37.4453 182.595 37.4193 182.804 37.3672C183.025 37.3151 183.227 37.2565 183.409 37.1914C183.604 37.1133 183.787 37.0482 183.956 36.9961C184.125 36.944 184.295 36.918 184.464 36.918C184.763 36.918 185.024 37.0482 185.245 37.3086C185.479 37.569 185.597 37.8815 185.597 38.2461C185.597 38.6107 185.453 38.9753 185.167 39.3398C184.893 39.7044 184.529 40.0365 184.073 40.3359C183.617 40.6224 183.103 40.8568 182.53 41.0391C181.957 41.2214 181.378 41.3125 180.792 41.3125C179.776 41.3125 178.884 40.8958 178.116 40.0625C177.348 39.2161 176.801 37.9792 176.476 36.3516C176.397 36.0911 176.293 35.9609 176.163 35.9609C176.007 35.9609 175.87 36.0391 175.753 36.1953C174.464 37.8229 173.09 39.0469 171.632 39.8672C170.173 40.6745 168.735 41.0781 167.315 41.0781C166.651 41.0781 166.052 40.9805 165.518 40.7852C164.985 40.5898 164.529 40.3164 164.151 39.9648C163.787 39.6003 163.5 39.1641 163.292 38.6562C163.097 38.1354 162.999 37.556 162.999 36.918C162.999 36.0195 163.194 35.0755 163.585 34.0859C163.989 33.0964 164.529 32.1198 165.206 31.1562C165.883 30.1927 166.664 29.2747 167.55 28.4023C168.448 27.5299 169.386 26.7617 170.362 26.0977C171.352 25.4336 172.354 24.9062 173.37 24.5156C174.386 24.125 175.356 23.9297 176.28 23.9297ZM175.636 30.6875C175.87 30.2448 176.085 29.9258 176.28 29.7305C176.476 29.5221 176.755 29.3854 177.12 29.3203C177.406 29.2812 177.55 29.1901 177.55 29.0469C177.55 28.9427 177.511 28.832 177.433 28.7148C177.185 28.3763 176.925 28.0833 176.651 27.8359C176.378 27.5755 176.013 27.4453 175.558 27.4453C175.063 27.4453 174.509 27.5885 173.897 27.875C173.285 28.1615 172.66 28.5456 172.022 29.0273C171.397 29.4961 170.779 30.0365 170.167 30.6484C169.568 31.2474 169.034 31.8659 168.565 32.5039C168.097 33.1419 167.719 33.7734 167.433 34.3984C167.146 35.0234 167.003 35.5833 167.003 36.0781C167.003 36.5208 167.12 36.8659 167.354 37.1133C167.602 37.3607 167.934 37.4844 168.351 37.4844C169.418 37.4844 170.584 36.918 171.847 35.7852C173.11 34.6523 174.373 32.9531 175.636 30.6875ZM195.904 24.0469C196.777 24.0469 197.675 24.1641 198.6 24.3984C199.524 24.6198 200.371 24.9128 201.139 25.2773C201.907 25.6289 202.539 26.026 203.033 26.4688C203.528 26.9115 203.776 27.3411 203.776 27.7578C203.776 27.9661 203.684 28.2005 203.502 28.4609C203.32 28.7083 203.098 28.9492 202.838 29.1836C202.578 29.4049 202.291 29.5938 201.979 29.75C201.679 29.8932 201.412 29.9648 201.178 29.9648C200.865 29.9648 200.514 29.8346 200.123 29.5742C199.746 29.3138 199.322 29.0273 198.854 28.7148C198.398 28.3893 197.897 28.0964 197.35 27.8359C196.803 27.5755 196.21 27.4453 195.572 27.4453C195.156 27.4453 194.811 27.5495 194.537 27.7578C194.277 27.9531 194.147 28.2331 194.147 28.5977C194.147 28.9232 194.303 29.2552 194.615 29.5938C194.928 29.9193 195.338 30.2578 195.846 30.6094C196.367 30.9609 196.953 31.332 197.604 31.7227C198.255 32.1133 198.919 32.5299 199.596 32.9727C200.286 33.4154 200.957 33.8971 201.608 34.418C202.259 34.9388 202.838 35.5052 203.346 36.1172C203.867 36.7292 204.283 37.3997 204.596 38.1289C204.908 38.8451 205.065 39.6263 205.065 40.4727C205.065 41.2018 204.934 41.8659 204.674 42.4648C204.414 43.0638 204.042 43.5781 203.561 44.0078C203.079 44.4375 202.506 44.7695 201.842 45.0039C201.178 45.2383 200.449 45.3555 199.654 45.3555C198.652 45.3555 197.727 45.1992 196.881 44.8867C196.035 44.5872 195.305 44.1706 194.693 43.6367C194.082 43.1029 193.6 42.4648 193.248 41.7227C192.91 40.9805 192.74 40.1667 192.74 39.2812C192.74 38.1354 192.942 37.3021 193.346 36.7812C193.762 36.2604 194.414 36 195.299 36C195.846 36 196.282 36.1042 196.608 36.3125C196.933 36.5208 197.096 36.7747 197.096 37.0742C197.096 37.2305 197.07 37.3932 197.018 37.5625C196.966 37.7188 196.907 37.888 196.842 38.0703C196.79 38.2396 196.738 38.4219 196.686 38.6172C196.647 38.8125 196.627 39.0078 196.627 39.2031C196.627 39.5417 196.705 39.8672 196.861 40.1797C197.018 40.4922 197.226 40.7656 197.486 41C197.76 41.2474 198.072 41.4427 198.424 41.5859C198.776 41.7292 199.147 41.8008 199.537 41.8008C200.579 41.8008 201.1 41.3711 201.1 40.5117C201.1 39.8346 200.833 39.1966 200.299 38.5977C199.765 37.9857 199.095 37.3932 198.287 36.8203C197.48 36.2344 196.608 35.6484 195.67 35.0625C194.746 34.4766 193.88 33.8646 193.072 33.2266C192.265 32.5885 191.595 31.9115 191.061 31.1953C190.527 30.4661 190.26 29.6784 190.26 28.832C190.26 28.1289 190.403 27.4844 190.69 26.8984C190.989 26.3125 191.393 25.8112 191.901 25.3945C192.408 24.9648 193.001 24.6328 193.678 24.3984C194.368 24.1641 195.11 24.0469 195.904 24.0469ZM212.384 18.4414C212.384 17.7513 212.579 17.2695 212.97 16.9961C213.361 16.7096 214.005 16.5664 214.904 16.5664C215.229 16.5664 215.503 16.599 215.724 16.6641C215.958 16.7161 216.154 16.8203 216.31 16.9766C216.479 17.1328 216.609 17.3411 216.701 17.6016C216.805 17.849 216.889 18.168 216.954 18.5586C217.111 19.7695 217.28 21.0195 217.462 22.3086C217.658 23.5977 217.859 24.8932 218.068 26.1953C218.146 26.7812 218.452 27.0742 218.986 27.0742C219.129 27.0742 219.363 27.0612 219.689 27.0352C220.027 26.9961 220.424 26.957 220.88 26.918C221.336 26.8659 221.824 26.8138 222.345 26.7617C222.879 26.7096 223.406 26.6641 223.927 26.625C224.461 26.5729 224.962 26.5339 225.431 26.5078C225.913 26.4688 226.336 26.4492 226.701 26.4492C226.987 26.4492 227.215 26.5078 227.384 26.625C227.553 26.7292 227.684 26.8724 227.775 27.0547C227.879 27.224 227.944 27.4193 227.97 27.6406C228.009 27.849 228.029 28.0638 228.029 28.2852C228.029 28.4805 227.99 28.6823 227.911 28.8906C227.846 29.099 227.749 29.2878 227.618 29.457C227.501 29.6133 227.352 29.7435 227.169 29.8477C226.987 29.9518 226.779 30.0039 226.544 30.0039C225.411 30.0039 224.266 30.043 223.107 30.1211C221.961 30.1862 220.815 30.2773 219.669 30.3945C219.083 30.4727 218.79 30.7656 218.79 31.2734C218.79 31.3125 218.797 31.3646 218.81 31.4297C218.823 31.4818 218.829 31.5273 218.829 31.5664C218.986 32.6992 219.129 33.7604 219.259 34.75C219.402 35.7396 219.52 36.625 219.611 37.4062C219.715 38.1745 219.793 38.819 219.845 39.3398C219.91 39.8477 219.943 40.1862 219.943 40.3555C219.943 40.8242 219.897 41.2148 219.806 41.5273C219.715 41.8529 219.565 42.1133 219.357 42.3086C219.148 42.5169 218.868 42.6602 218.517 42.7383C218.178 42.8294 217.749 42.875 217.228 42.875C216.733 42.875 216.368 42.7578 216.134 42.5234C215.9 42.2891 215.77 41.931 215.743 41.4492C215.665 39.9128 215.542 38.3698 215.372 36.8203C215.203 35.2578 215.008 33.7018 214.786 32.1523C214.669 31.5924 214.376 31.3125 213.908 31.3125C213.868 31.3125 213.823 31.319 213.771 31.332C213.719 31.3451 213.673 31.3516 213.634 31.3516C212.827 31.5339 212.065 31.7161 211.349 31.8984C210.633 32.0807 209.962 32.276 209.337 32.4844C208.986 32.6016 208.673 32.6862 208.4 32.7383C208.126 32.7773 207.879 32.7969 207.658 32.7969C207.358 32.7969 207.137 32.6667 206.993 32.4062C206.85 32.1328 206.779 31.7943 206.779 31.3906C206.779 31.2474 206.792 31.0846 206.818 30.9023C206.844 30.707 206.896 30.5182 206.974 30.3359C207.039 30.1406 207.143 29.9648 207.286 29.8086C207.417 29.6393 207.599 29.5026 207.833 29.3984C208.38 29.1771 209.109 28.9492 210.021 28.7148C210.932 28.4674 211.961 28.2396 213.107 28.0312C213.367 27.9661 213.569 27.862 213.712 27.7188C213.868 27.5625 213.947 27.3346 213.947 27.0352C213.947 26.9701 213.947 26.9049 213.947 26.8398C213.947 26.7617 213.934 26.6836 213.908 26.6055C213.699 25.4076 213.497 24.3203 213.302 23.3438C213.12 22.3542 212.957 21.5078 212.814 20.8047C212.684 20.1016 212.579 19.5482 212.501 19.1445C212.423 18.7409 212.384 18.5065 212.384 18.4414ZM234.626 21.0781C234.248 21.0781 233.89 21.026 233.551 20.9219C233.226 20.8047 232.939 20.6484 232.692 20.4531C232.458 20.2448 232.269 20.0039 232.126 19.7305C231.982 19.457 231.911 19.1576 231.911 18.832C231.911 18.2852 232.126 17.8424 232.555 17.5039C232.998 17.1654 233.584 16.9961 234.313 16.9961C234.652 16.9961 234.977 17.0612 235.29 17.1914C235.602 17.3086 235.876 17.4714 236.11 17.6797C236.357 17.888 236.553 18.1354 236.696 18.4219C236.839 18.6953 236.911 18.9818 236.911 19.2812C236.911 19.8411 236.702 20.2839 236.286 20.6094C235.882 20.9219 235.329 21.0781 234.626 21.0781ZM231.95 27.0352C231.95 26.5794 232.145 26.2083 232.536 25.9219C232.939 25.6224 233.467 25.4727 234.118 25.4727C235.29 25.4727 235.915 25.8763 235.993 26.6836C236.045 27.2435 236.097 27.875 236.149 28.5781C236.214 29.2812 236.273 30.0299 236.325 30.8242C236.39 31.6055 236.442 32.4193 236.481 33.2656C236.533 34.099 236.579 34.9258 236.618 35.7461C236.657 36.5534 236.689 37.3346 236.715 38.0898C236.741 38.8451 236.754 39.5352 236.754 40.1602C236.754 40.8112 236.52 41.2995 236.051 41.625C235.596 41.9505 234.925 42.1133 234.04 42.1133C233.636 42.1133 233.317 42.0156 233.083 41.8203C232.861 41.638 232.751 41.3646 232.751 41C232.751 39.2031 232.705 37.5234 232.614 35.9609C232.536 34.3854 232.445 32.9857 232.34 31.7617C232.249 30.5378 232.158 29.5221 232.067 28.7148C231.989 27.8945 231.95 27.3346 231.95 27.0352ZM252.062 24.8867C252.739 24.8867 253.397 24.9844 254.035 25.1797C254.673 25.375 255.233 25.6419 255.715 25.9805C256.209 26.306 256.606 26.6836 256.906 27.1133C257.205 27.5299 257.355 27.9596 257.355 28.4023C257.355 28.6888 257.297 28.9688 257.179 29.2422C257.062 29.5026 256.906 29.737 256.711 29.9453C256.515 30.1406 256.294 30.3034 256.047 30.4336C255.799 30.5508 255.539 30.6094 255.265 30.6094C254.966 30.6094 254.692 30.4987 254.445 30.2773C254.198 30.043 253.931 29.7891 253.644 29.5156C253.371 29.2292 253.058 28.9753 252.707 28.7539C252.368 28.5195 251.958 28.4023 251.476 28.4023C251.008 28.4023 250.584 28.513 250.207 28.7344C249.829 28.9557 249.51 29.2682 249.25 29.6719C249.002 30.0625 248.807 30.5312 248.664 31.0781C248.534 31.612 248.468 32.1979 248.468 32.8359C248.468 34.6589 248.814 36.0521 249.504 37.0156C250.194 37.9661 251.183 38.4414 252.472 38.4414C253.084 38.4414 253.605 38.3438 254.035 38.1484C254.478 37.9531 254.862 37.7383 255.187 37.5039C255.526 37.2695 255.832 37.0547 256.105 36.8594C256.379 36.6641 256.659 36.5664 256.945 36.5664C257.101 36.5664 257.258 36.6185 257.414 36.7227C257.57 36.8138 257.707 36.9375 257.824 37.0938C257.954 37.237 258.058 37.3997 258.136 37.582C258.228 37.7643 258.273 37.9466 258.273 38.1289C258.273 38.5586 258.058 39.0013 257.629 39.457C257.212 39.9128 256.672 40.3294 256.008 40.707C255.343 41.0716 254.601 41.3711 253.781 41.6055C252.974 41.8398 252.186 41.957 251.418 41.957C250.389 41.957 249.445 41.7552 248.586 41.3516C247.726 40.9609 246.984 40.4141 246.359 39.7109C245.734 38.9948 245.246 38.1419 244.894 37.1523C244.556 36.1628 244.386 35.069 244.386 33.8711C244.386 32.569 244.575 31.3711 244.953 30.2773C245.343 29.1836 245.877 28.2396 246.554 27.4453C247.245 26.638 248.058 26.013 248.996 25.5703C249.933 25.1146 250.955 24.8867 252.062 24.8867Z" fill="black"/>
<path d="M56.7882 49.1797H57.7926L60.3546 55.5552L62.9113 49.1797H63.921L60.7413 57H59.9572L56.7882 49.1797ZM56.4606 49.1797H57.3468L57.4918 53.9492V57H56.4606V49.1797ZM63.3571 49.1797H64.2433V57H63.212V53.9492L63.3571 49.1797ZM65.6505 54.1587V54.0352C65.6505 53.6162 65.7114 53.2277 65.8331 52.8696C65.9549 52.508 66.1303 52.1947 66.3595 51.9297C66.5887 51.6611 66.8662 51.4535 67.192 51.3066C67.5179 51.1562 67.8831 51.0811 68.2877 51.0811C68.6959 51.0811 69.0629 51.1562 69.3888 51.3066C69.7182 51.4535 69.9975 51.6611 70.2267 51.9297C70.4594 52.1947 70.6367 52.508 70.7584 52.8696C70.8802 53.2277 70.941 53.6162 70.941 54.0352V54.1587C70.941 54.5776 70.8802 54.9661 70.7584 55.3242C70.6367 55.6823 70.4594 55.9956 70.2267 56.2642C69.9975 56.5291 69.72 56.7368 69.3942 56.8872C69.0719 57.034 68.7067 57.1074 68.2985 57.1074C67.8903 57.1074 67.5232 57.034 67.1974 56.8872C66.8715 56.7368 66.5922 56.5291 66.3595 56.2642C66.1303 55.9956 65.9549 55.6823 65.8331 55.3242C65.7114 54.9661 65.6505 54.5776 65.6505 54.1587ZM66.6442 54.0352V54.1587C66.6442 54.4487 66.6782 54.7227 66.7462 54.9805C66.8142 55.2347 66.9163 55.4603 67.0524 55.6572C67.192 55.8542 67.3657 56.0099 67.5734 56.1245C67.781 56.2355 68.0227 56.291 68.2985 56.291C68.5706 56.291 68.8087 56.2355 69.0128 56.1245C69.2205 56.0099 69.3924 55.8542 69.5284 55.6572C69.6645 55.4603 69.7666 55.2347 69.8346 54.9805C69.9062 54.7227 69.942 54.4487 69.942 54.1587V54.0352C69.942 53.7487 69.9062 53.4784 69.8346 53.2241C69.7666 52.9663 69.6627 52.7389 69.5231 52.542C69.387 52.3415 69.2151 52.1839 69.0074 52.0693C68.8033 51.9548 68.5634 51.8975 68.2877 51.8975C68.0156 51.8975 67.7757 51.9548 67.568 52.0693C67.3639 52.1839 67.192 52.3415 67.0524 52.542C66.9163 52.7389 66.8142 52.9663 66.7462 53.2241C66.6782 53.4784 66.6442 53.7487 66.6442 54.0352ZM73.1808 52.1016V57H72.1871V51.1885H73.1539L73.1808 52.1016ZM74.9962 51.1562L74.9908 52.0801C74.9085 52.0622 74.8297 52.0514 74.7545 52.0479C74.6829 52.0407 74.6005 52.0371 74.5074 52.0371C74.2783 52.0371 74.076 52.0729 73.9005 52.1445C73.7251 52.2161 73.5765 52.3164 73.4547 52.4453C73.333 52.5742 73.2363 52.7282 73.1647 52.9072C73.0966 53.0827 73.0519 53.276 73.0304 53.4873L72.7511 53.6484C72.7511 53.2975 72.7851 52.9681 72.8531 52.6602C72.9248 52.3522 73.034 52.0801 73.1808 51.8438C73.3276 51.6038 73.5138 51.4176 73.7394 51.2852C73.9685 51.1491 74.2407 51.0811 74.5558 51.0811C74.6274 51.0811 74.7098 51.09 74.8029 51.1079C74.896 51.1222 74.9604 51.1383 74.9962 51.1562ZM78.2189 57.1074C77.8142 57.1074 77.4472 57.0394 77.1178 56.9033C76.792 56.7637 76.5109 56.5685 76.2745 56.3179C76.0418 56.0672 75.8628 55.77 75.7374 55.4263C75.6121 55.0825 75.5494 54.7065 75.5494 54.2983V54.0728C75.5494 53.6001 75.6193 53.1794 75.7589 52.8105C75.8986 52.4382 76.0883 52.123 76.3282 51.8652C76.5682 51.6074 76.8403 51.4123 77.1447 51.2798C77.449 51.1473 77.7641 51.0811 78.09 51.0811C78.5053 51.0811 78.8634 51.1527 79.1642 51.2959C79.4685 51.4391 79.7174 51.6396 79.9108 51.8975C80.1041 52.1517 80.2474 52.4525 80.3405 52.7998C80.4336 53.1436 80.4801 53.5195 80.4801 53.9277V54.3735H76.1403V53.5625H79.4865V53.4873C79.4721 53.2295 79.4184 52.9788 79.3253 52.7354C79.2358 52.4919 79.0926 52.2913 78.8956 52.1338C78.6987 51.9762 78.4301 51.8975 78.09 51.8975C77.8644 51.8975 77.6567 51.9458 77.4669 52.0425C77.2771 52.1356 77.1142 52.2752 76.9781 52.4614C76.8421 52.6476 76.7365 52.875 76.6613 53.1436C76.5861 53.4121 76.5485 53.7218 76.5485 54.0728V54.2983C76.5485 54.5741 76.5861 54.8337 76.6613 55.0771C76.74 55.3171 76.8528 55.5283 76.9996 55.7109C77.15 55.8936 77.3309 56.0368 77.5421 56.1406C77.757 56.2445 78.0004 56.2964 78.2726 56.2964C78.6235 56.2964 78.9207 56.2248 79.1642 56.0815C79.4077 55.9383 79.6207 55.7467 79.8033 55.5068L80.4049 55.9849C80.2796 56.1746 80.1202 56.3555 79.9269 56.5273C79.7335 56.6992 79.4954 56.8389 79.2125 56.9463C78.9332 57.0537 78.602 57.1074 78.2189 57.1074ZM86.8019 51.1885V51.9512H83.6598V51.1885H86.8019ZM84.7233 49.7759H85.7169V55.5605C85.7169 55.7575 85.7474 55.9061 85.8082 56.0063C85.8691 56.1066 85.9479 56.1729 86.0446 56.2051C86.1412 56.2373 86.2451 56.2534 86.3561 56.2534C86.4384 56.2534 86.5244 56.2463 86.6139 56.2319C86.707 56.214 86.7768 56.1997 86.8234 56.189L86.8287 57C86.75 57.0251 86.6461 57.0483 86.5172 57.0698C86.3919 57.0949 86.2397 57.1074 86.0607 57.1074C85.8172 57.1074 85.5934 57.0591 85.3893 56.9624C85.1852 56.8657 85.0223 56.7046 84.9005 56.479C84.7823 56.2498 84.7233 55.9419 84.7233 55.5552V49.7759ZM88.9611 48.75V57H87.9674V48.75H88.9611ZM88.7247 53.874L88.3112 53.8579C88.3147 53.4604 88.3738 53.0934 88.4884 52.7568C88.603 52.4167 88.7641 52.1213 88.9718 51.8706C89.1795 51.62 89.4266 51.4266 89.713 51.2905C90.0031 51.1509 90.3235 51.0811 90.6744 51.0811C90.9609 51.0811 91.2187 51.1204 91.4479 51.1992C91.677 51.2744 91.8722 51.3962 92.0333 51.5645C92.198 51.7327 92.3234 51.9512 92.4093 52.2197C92.4952 52.4847 92.5382 52.8088 92.5382 53.1919V57H91.5392V53.1812C91.5392 52.8768 91.4944 52.6333 91.4049 52.4507C91.3154 52.2645 91.1847 52.1302 91.0128 52.0479C90.8409 51.9619 90.6297 51.9189 90.379 51.9189C90.132 51.9189 89.9064 51.9709 89.7023 52.0747C89.5017 52.1785 89.3281 52.3218 89.1813 52.5044C89.038 52.687 88.9253 52.8965 88.8429 53.1328C88.7641 53.3656 88.7247 53.6126 88.7247 53.874ZM97.4528 56.0063V53.0146C97.4528 52.7855 97.4062 52.5868 97.3131 52.4185C97.2236 52.2466 97.0875 52.1141 96.9049 52.021C96.7223 51.9279 96.4967 51.8813 96.2281 51.8813C95.9775 51.8813 95.7573 51.9243 95.5675 52.0103C95.3813 52.0962 95.2345 52.209 95.1271 52.3486C95.0232 52.4883 94.9713 52.6387 94.9713 52.7998H93.9777C93.9777 52.5921 94.0314 52.3862 94.1388 52.1821C94.2462 51.978 94.4002 51.7936 94.6007 51.6289C94.8048 51.4606 95.0483 51.3281 95.3312 51.2314C95.6176 51.1312 95.9363 51.0811 96.2872 51.0811C96.7098 51.0811 97.0822 51.1527 97.4044 51.2959C97.7303 51.4391 97.9845 51.6558 98.1671 51.9458C98.3533 52.2323 98.4464 52.5921 98.4464 53.0254V55.7324C98.4464 55.9258 98.4625 56.1317 98.4948 56.3501C98.5306 56.5685 98.5825 56.7565 98.6505 56.9141V57H97.6139C97.5638 56.8854 97.5244 56.7332 97.4957 56.5435C97.4671 56.3501 97.4528 56.1711 97.4528 56.0063ZM97.6246 53.4766L97.6354 54.1748H96.631C96.3481 54.1748 96.0957 54.1981 95.8737 54.2446C95.6517 54.2876 95.4655 54.3538 95.3151 54.4434C95.1647 54.5329 95.0501 54.6457 94.9713 54.7817C94.8925 54.9142 94.8531 55.07 94.8531 55.249C94.8531 55.4316 94.8943 55.5981 94.9767 55.7485C95.059 55.8989 95.1826 56.0189 95.3473 56.1084C95.5156 56.1943 95.7215 56.2373 95.965 56.2373C96.2693 56.2373 96.5379 56.1729 96.7706 56.0439C97.0034 55.915 97.1878 55.7575 97.3239 55.5713C97.4635 55.3851 97.5387 55.2043 97.5494 55.0288L97.9738 55.5068C97.9487 55.6572 97.8807 55.8237 97.7697 56.0063C97.6587 56.189 97.5101 56.3644 97.3239 56.5327C97.1412 56.6974 96.9228 56.8353 96.6686 56.9463C96.4179 57.0537 96.1351 57.1074 95.8199 57.1074C95.4261 57.1074 95.0805 57.0304 94.7833 56.8765C94.4897 56.7225 94.2605 56.5166 94.0958 56.2588C93.9347 55.9974 93.8541 55.7056 93.8541 55.3833C93.8541 55.0718 93.915 54.7979 94.0367 54.5615C94.1585 54.3216 94.3339 54.1229 94.5631 53.9653C94.7923 53.8042 95.068 53.6825 95.3903 53.6001C95.7125 53.5177 96.0724 53.4766 96.4698 53.4766H97.6246ZM101.003 52.4292V57H100.009V51.1885H100.949L101.003 52.4292ZM100.767 53.874L100.353 53.8579C100.357 53.4604 100.416 53.0934 100.53 52.7568C100.645 52.4167 100.806 52.1213 101.014 51.8706C101.221 51.62 101.469 51.4266 101.755 51.2905C102.045 51.1509 102.366 51.0811 102.716 51.0811C103.003 51.0811 103.261 51.1204 103.49 51.1992C103.719 51.2744 103.914 51.3962 104.075 51.5645C104.24 51.7327 104.365 51.9512 104.451 52.2197C104.537 52.4847 104.58 52.8088 104.58 53.1919V57H103.581V53.1812C103.581 52.8768 103.536 52.6333 103.447 52.4507C103.357 52.2645 103.227 52.1302 103.055 52.0479C102.883 51.9619 102.672 51.9189 102.421 51.9189C102.174 51.9189 101.948 51.9709 101.744 52.0747C101.544 52.1785 101.37 52.3218 101.223 52.5044C101.08 52.687 100.967 52.8965 100.885 53.1328C100.806 53.3656 100.767 53.6126 100.767 53.874ZM112.202 55.4585C112.202 55.3153 112.17 55.1828 112.105 55.061C112.044 54.9357 111.917 54.8229 111.724 54.7227C111.534 54.6188 111.248 54.5293 110.864 54.4541C110.542 54.3861 110.25 54.3055 109.989 54.2124C109.731 54.1193 109.511 54.0065 109.328 53.874C109.149 53.7415 109.011 53.5858 108.915 53.4067C108.818 53.2277 108.77 53.0182 108.77 52.7783C108.77 52.5492 108.82 52.3325 108.92 52.1284C109.024 51.9243 109.169 51.7435 109.355 51.5859C109.545 51.4284 109.772 51.3049 110.037 51.2153C110.302 51.1258 110.598 51.0811 110.923 51.0811C111.389 51.0811 111.786 51.1634 112.116 51.3281C112.445 51.4928 112.698 51.7131 112.873 51.9888C113.049 52.2609 113.136 52.5635 113.136 52.8965H112.143C112.143 52.7354 112.094 52.5796 111.998 52.4292C111.905 52.2752 111.767 52.1481 111.584 52.0479C111.405 51.9476 111.185 51.8975 110.923 51.8975C110.648 51.8975 110.424 51.9404 110.252 52.0264C110.084 52.1087 109.96 52.2144 109.881 52.3433C109.806 52.4722 109.769 52.6082 109.769 52.7515C109.769 52.8589 109.787 52.9556 109.822 53.0415C109.862 53.1239 109.93 53.2008 110.026 53.2725C110.123 53.3405 110.259 53.4049 110.435 53.4658C110.61 53.5267 110.834 53.5876 111.106 53.6484C111.582 53.7559 111.974 53.8848 112.282 54.0352C112.59 54.1855 112.819 54.37 112.97 54.5884C113.12 54.8068 113.195 55.0718 113.195 55.3833C113.195 55.6375 113.142 55.8703 113.034 56.0815C112.93 56.2928 112.778 56.4754 112.578 56.6294C112.381 56.7798 112.144 56.8979 111.869 56.9839C111.597 57.0662 111.29 57.1074 110.95 57.1074C110.438 57.1074 110.005 57.0161 109.651 56.8335C109.296 56.6509 109.027 56.4146 108.845 56.1245C108.662 55.8345 108.571 55.5283 108.571 55.2061H109.57C109.584 55.4782 109.663 55.6948 109.806 55.856C109.95 56.0135 110.125 56.1263 110.333 56.1943C110.54 56.2588 110.746 56.291 110.95 56.291C111.222 56.291 111.45 56.2552 111.632 56.1836C111.819 56.112 111.96 56.0135 112.057 55.8882C112.153 55.7629 112.202 55.6196 112.202 55.4585ZM115.58 51.1885V57H114.581V51.1885H115.58ZM114.506 49.647C114.506 49.4858 114.554 49.3498 114.651 49.2388C114.751 49.1278 114.898 49.0723 115.091 49.0723C115.281 49.0723 115.426 49.1278 115.526 49.2388C115.63 49.3498 115.682 49.4858 115.682 49.647C115.682 49.8009 115.63 49.9334 115.526 50.0444C115.426 50.1519 115.281 50.2056 115.091 50.2056C114.898 50.2056 114.751 50.1519 114.651 50.0444C114.554 49.9334 114.506 49.8009 114.506 49.647ZM119.609 51.1885V51.9512H116.466V51.1885H119.609ZM117.53 49.7759H118.524V55.5605C118.524 55.7575 118.554 55.9061 118.615 56.0063C118.676 56.1066 118.755 56.1729 118.851 56.2051C118.948 56.2373 119.052 56.2534 119.163 56.2534C119.245 56.2534 119.331 56.2463 119.421 56.2319C119.514 56.214 119.583 56.1997 119.63 56.189L119.635 57C119.557 57.0251 119.453 57.0483 119.324 57.0698C119.199 57.0949 119.046 57.1074 118.867 57.1074C118.624 57.1074 118.4 57.0591 118.196 56.9624C117.992 56.8657 117.829 56.7046 117.707 56.479C117.589 56.2498 117.53 55.9419 117.53 55.5552V49.7759ZM123.207 51.1885V51.9512H120.065V51.1885H123.207ZM121.129 49.7759H122.122V55.5605C122.122 55.7575 122.153 55.9061 122.214 56.0063C122.274 56.1066 122.353 56.1729 122.45 56.2051C122.547 56.2373 122.65 56.2534 122.761 56.2534C122.844 56.2534 122.93 56.2463 123.019 56.2319C123.112 56.214 123.182 56.1997 123.229 56.189L123.234 57C123.155 57.0251 123.051 57.0483 122.922 57.0698C122.797 57.0949 122.645 57.1074 122.466 57.1074C122.222 57.1074 121.999 57.0591 121.795 56.9624C121.59 56.8657 121.428 56.7046 121.306 56.479C121.188 56.2498 121.129 55.9419 121.129 55.5552V49.7759ZM126.784 57.1074C126.38 57.1074 126.013 57.0394 125.683 56.9033C125.357 56.7637 125.076 56.5685 124.84 56.3179C124.607 56.0672 124.428 55.77 124.303 55.4263C124.178 55.0825 124.115 54.7065 124.115 54.2983V54.0728C124.115 53.6001 124.185 53.1794 124.324 52.8105C124.464 52.4382 124.654 52.123 124.894 51.8652C125.134 51.6074 125.406 51.4123 125.71 51.2798C126.014 51.1473 126.33 51.0811 126.655 51.0811C127.071 51.0811 127.429 51.1527 127.73 51.2959C128.034 51.4391 128.283 51.6396 128.476 51.8975C128.67 52.1517 128.813 52.4525 128.906 52.7998C128.999 53.1436 129.046 53.5195 129.046 53.9277V54.3735H124.706V53.5625H128.052V53.4873C128.038 53.2295 127.984 52.9788 127.891 52.7354C127.801 52.4919 127.658 52.2913 127.461 52.1338C127.264 51.9762 126.996 51.8975 126.655 51.8975C126.43 51.8975 126.222 51.9458 126.032 52.0425C125.843 52.1356 125.68 52.2752 125.544 52.4614C125.408 52.6476 125.302 52.875 125.227 53.1436C125.151 53.4121 125.114 53.7218 125.114 54.0728V54.2983C125.114 54.5741 125.151 54.8337 125.227 55.0771C125.305 55.3171 125.418 55.5283 125.565 55.7109C125.715 55.8936 125.896 56.0368 126.108 56.1406C126.322 56.2445 126.566 56.2964 126.838 56.2964C127.189 56.2964 127.486 56.2248 127.73 56.0815C127.973 55.9383 128.186 55.7467 128.369 55.5068L128.97 55.9849C128.845 56.1746 128.686 56.3555 128.492 56.5273C128.299 56.6992 128.061 56.8389 127.778 56.9463C127.499 57.0537 127.167 57.1074 126.784 57.1074ZM131.199 52.1016V57H130.206V51.1885H131.172L131.199 52.1016ZM133.015 51.1562L133.009 52.0801C132.927 52.0622 132.848 52.0514 132.773 52.0479C132.701 52.0407 132.619 52.0371 132.526 52.0371C132.297 52.0371 132.095 52.0729 131.919 52.1445C131.744 52.2161 131.595 52.3164 131.473 52.4453C131.352 52.5742 131.255 52.7282 131.183 52.9072C131.115 53.0827 131.07 53.276 131.049 53.4873L130.77 53.6484C130.77 53.2975 130.804 52.9681 130.872 52.6602C130.943 52.3522 131.053 52.0801 131.199 51.8438C131.346 51.6038 131.532 51.4176 131.758 51.2852C131.987 51.1491 132.259 51.0811 132.574 51.0811C132.646 51.0811 132.728 51.09 132.821 51.1079C132.915 51.1222 132.979 51.1383 133.015 51.1562ZM137.317 55.4585C137.317 55.3153 137.285 55.1828 137.22 55.061C137.159 54.9357 137.032 54.8229 136.839 54.7227C136.649 54.6188 136.363 54.5293 135.98 54.4541C135.657 54.3861 135.366 54.3055 135.104 54.2124C134.846 54.1193 134.626 54.0065 134.443 53.874C134.264 53.7415 134.127 53.5858 134.03 53.4067C133.933 53.2277 133.885 53.0182 133.885 52.7783C133.885 52.5492 133.935 52.3325 134.035 52.1284C134.139 51.9243 134.284 51.7435 134.47 51.5859C134.66 51.4284 134.887 51.3049 135.152 51.2153C135.417 51.1258 135.713 51.0811 136.039 51.0811C136.504 51.0811 136.902 51.1634 137.231 51.3281C137.561 51.4928 137.813 51.7131 137.988 51.9888C138.164 52.2609 138.252 52.5635 138.252 52.8965H137.258C137.258 52.7354 137.21 52.5796 137.113 52.4292C137.02 52.2752 136.882 52.1481 136.699 52.0479C136.52 51.9476 136.3 51.8975 136.039 51.8975C135.763 51.8975 135.539 51.9404 135.367 52.0264C135.199 52.1087 135.075 52.2144 134.997 52.3433C134.922 52.4722 134.884 52.6082 134.884 52.7515C134.884 52.8589 134.902 52.9556 134.938 53.0415C134.977 53.1239 135.045 53.2008 135.142 53.2725C135.238 53.3405 135.374 53.4049 135.55 53.4658C135.725 53.5267 135.949 53.5876 136.221 53.6484C136.698 53.7559 137.09 53.8848 137.398 54.0352C137.706 54.1855 137.935 54.37 138.085 54.5884C138.235 54.8068 138.311 55.0718 138.311 55.3833C138.311 55.6375 138.257 55.8703 138.15 56.0815C138.046 56.2928 137.894 56.4754 137.693 56.6294C137.496 56.7798 137.26 56.8979 136.984 56.9839C136.712 57.0662 136.406 57.1074 136.066 57.1074C135.554 57.1074 135.12 57.0161 134.766 56.8335C134.411 56.6509 134.143 56.4146 133.96 56.1245C133.777 55.8345 133.686 55.5283 133.686 55.2061H134.685C134.7 55.4782 134.778 55.6948 134.922 55.856C135.065 56.0135 135.24 56.1263 135.448 56.1943C135.656 56.2588 135.861 56.291 136.066 56.291C136.338 56.291 136.565 56.2552 136.748 56.1836C136.934 56.112 137.075 56.0135 137.172 55.8882C137.269 55.7629 137.317 55.6196 137.317 55.4585ZM146.808 52.687V53.5034H139.632V52.687H146.808ZM149.692 57H148.698V50.5762C148.698 50.1572 148.774 49.8045 148.924 49.5181C149.078 49.228 149.298 49.0096 149.585 48.8628C149.871 48.7124 150.211 48.6372 150.605 48.6372C150.72 48.6372 150.834 48.6444 150.949 48.6587C151.067 48.673 151.182 48.6945 151.293 48.7231L151.239 49.5342C151.164 49.5163 151.078 49.5037 150.981 49.4966C150.888 49.4894 150.795 49.4858 150.702 49.4858C150.491 49.4858 150.308 49.5288 150.154 49.6147C150.004 49.6971 149.889 49.8188 149.81 49.98C149.731 50.1411 149.692 50.3398 149.692 50.5762V57ZM150.927 51.1885V51.9512H147.78V51.1885H150.927ZM153.027 52.1016V57H152.034V51.1885H153.001L153.027 52.1016ZM154.843 51.1562L154.838 52.0801C154.755 52.0622 154.676 52.0514 154.601 52.0479C154.53 52.0407 154.447 52.0371 154.354 52.0371C154.125 52.0371 153.923 52.0729 153.747 52.1445C153.572 52.2161 153.423 52.3164 153.301 52.4453C153.18 52.5742 153.083 52.7282 153.011 52.9072C152.943 53.0827 152.899 53.276 152.877 53.4873L152.598 53.6484C152.598 53.2975 152.632 52.9681 152.7 52.6602C152.771 52.3522 152.881 52.0801 153.027 51.8438C153.174 51.6038 153.36 51.4176 153.586 51.2852C153.815 51.1491 154.087 51.0811 154.402 51.0811C154.474 51.0811 154.556 51.09 154.65 51.1079C154.743 51.1222 154.807 51.1383 154.843 51.1562ZM156.841 51.1885V57H155.842V51.1885H156.841ZM155.767 49.647C155.767 49.4858 155.815 49.3498 155.912 49.2388C156.012 49.1278 156.159 49.0723 156.352 49.0723C156.542 49.0723 156.687 49.1278 156.787 49.2388C156.891 49.3498 156.943 49.4858 156.943 49.647C156.943 49.8009 156.891 49.9334 156.787 50.0444C156.687 50.1519 156.542 50.2056 156.352 50.2056C156.159 50.2056 156.012 50.1519 155.912 50.0444C155.815 49.9334 155.767 49.8009 155.767 49.647ZM160.848 57.1074C160.443 57.1074 160.076 57.0394 159.747 56.9033C159.421 56.7637 159.14 56.5685 158.903 56.3179C158.671 56.0672 158.492 55.77 158.366 55.4263C158.241 55.0825 158.178 54.7065 158.178 54.2983V54.0728C158.178 53.6001 158.248 53.1794 158.388 52.8105C158.527 52.4382 158.717 52.123 158.957 51.8652C159.197 51.6074 159.469 51.4123 159.774 51.2798C160.078 51.1473 160.393 51.0811 160.719 51.0811C161.134 51.0811 161.492 51.1527 161.793 51.2959C162.097 51.4391 162.346 51.6396 162.54 51.8975C162.733 52.1517 162.876 52.4525 162.969 52.7998C163.062 53.1436 163.109 53.5195 163.109 53.9277V54.3735H158.769V53.5625H162.115V53.4873C162.101 53.2295 162.047 52.9788 161.954 52.7354C161.865 52.4919 161.721 52.2913 161.525 52.1338C161.328 51.9762 161.059 51.8975 160.719 51.8975C160.493 51.8975 160.286 51.9458 160.096 52.0425C159.906 52.1356 159.743 52.2752 159.607 52.4614C159.471 52.6476 159.365 52.875 159.29 53.1436C159.215 53.4121 159.177 53.7218 159.177 54.0728V54.2983C159.177 54.5741 159.215 54.8337 159.29 55.0771C159.369 55.3171 159.482 55.5283 159.629 55.7109C159.779 55.8936 159.96 56.0368 160.171 56.1406C160.386 56.2445 160.629 56.2964 160.901 56.2964C161.252 56.2964 161.55 56.2248 161.793 56.0815C162.037 55.9383 162.25 55.7467 162.432 55.5068L163.034 55.9849C162.908 56.1746 162.749 56.3555 162.556 56.5273C162.362 56.6992 162.124 56.8389 161.841 56.9463C161.562 57.0537 161.231 57.1074 160.848 57.1074ZM165.263 52.4292V57H164.269V51.1885H165.209L165.263 52.4292ZM165.026 53.874L164.613 53.8579C164.616 53.4604 164.676 53.0934 164.79 52.7568C164.905 52.4167 165.066 52.1213 165.274 51.8706C165.481 51.62 165.728 51.4266 166.015 51.2905C166.305 51.1509 166.625 51.0811 166.976 51.0811C167.263 51.0811 167.52 51.1204 167.75 51.1992C167.979 51.2744 168.174 51.3962 168.335 51.5645C168.5 51.7327 168.625 51.9512 168.711 52.2197C168.797 52.4847 168.84 52.8088 168.84 53.1919V57H167.841V53.1812C167.841 52.8768 167.796 52.6333 167.707 52.4507C167.617 52.2645 167.486 52.1302 167.315 52.0479C167.143 51.9619 166.931 51.9189 166.681 51.9189C166.434 51.9189 166.208 51.9709 166.004 52.0747C165.804 52.1785 165.63 52.3218 165.483 52.5044C165.34 52.687 165.227 52.8965 165.145 53.1328C165.066 53.3656 165.026 53.6126 165.026 53.874ZM174.012 55.8721V48.75H175.011V57H174.098L174.012 55.8721ZM170.102 54.1587V54.0459C170.102 53.6019 170.156 53.1991 170.263 52.8374C170.374 52.4722 170.53 52.1589 170.731 51.8975C170.935 51.6361 171.176 51.4355 171.456 51.2959C171.739 51.1527 172.054 51.0811 172.401 51.0811C172.766 51.0811 173.085 51.1455 173.357 51.2744C173.633 51.3997 173.866 51.5841 174.055 51.8276C174.249 52.0675 174.401 52.3576 174.512 52.6978C174.623 53.0379 174.7 53.4229 174.743 53.8525V54.3467C174.703 54.7728 174.626 55.1559 174.512 55.4961C174.401 55.8363 174.249 56.1263 174.055 56.3662C173.866 56.6061 173.633 56.7905 173.357 56.9194C173.081 57.0448 172.759 57.1074 172.39 57.1074C172.05 57.1074 171.739 57.034 171.456 56.8872C171.176 56.7404 170.935 56.5345 170.731 56.2695C170.53 56.0046 170.374 55.693 170.263 55.335C170.156 54.9733 170.102 54.5812 170.102 54.1587ZM171.101 54.0459V54.1587C171.101 54.4487 171.13 54.7209 171.187 54.9751C171.248 55.2293 171.341 55.4531 171.466 55.6465C171.592 55.8398 171.751 55.992 171.944 56.103C172.138 56.2104 172.369 56.2642 172.637 56.2642C172.967 56.2642 173.237 56.1943 173.448 56.0547C173.663 55.915 173.835 55.7306 173.964 55.5015C174.093 55.2723 174.193 55.0234 174.265 54.7549V53.4604C174.222 53.2635 174.159 53.0737 174.077 52.8911C173.998 52.7049 173.894 52.5402 173.765 52.397C173.64 52.2502 173.484 52.1338 173.298 52.0479C173.115 51.9619 172.899 51.9189 172.648 51.9189C172.376 51.9189 172.141 51.9762 171.944 52.0908C171.751 52.2018 171.592 52.3558 171.466 52.5527C171.341 52.7461 171.248 52.9717 171.187 53.2295C171.13 53.4837 171.101 53.7559 171.101 54.0459ZM179.942 55.4585C179.942 55.3153 179.91 55.1828 179.845 55.061C179.784 54.9357 179.657 54.8229 179.464 54.7227C179.274 54.6188 178.988 54.5293 178.605 54.4541C178.282 54.3861 177.991 54.3055 177.729 54.2124C177.471 54.1193 177.251 54.0065 177.068 53.874C176.889 53.7415 176.752 53.5858 176.655 53.4067C176.558 53.2277 176.51 53.0182 176.51 52.7783C176.51 52.5492 176.56 52.3325 176.66 52.1284C176.764 51.9243 176.909 51.7435 177.095 51.5859C177.285 51.4284 177.512 51.3049 177.777 51.2153C178.042 51.1258 178.338 51.0811 178.664 51.0811C179.129 51.0811 179.527 51.1634 179.856 51.3281C180.186 51.4928 180.438 51.7131 180.613 51.9888C180.789 52.2609 180.877 52.5635 180.877 52.8965H179.883C179.883 52.7354 179.835 52.5796 179.738 52.4292C179.645 52.2752 179.507 52.1481 179.324 52.0479C179.145 51.9476 178.925 51.8975 178.664 51.8975C178.388 51.8975 178.164 51.9404 177.992 52.0264C177.824 52.1087 177.7 52.2144 177.622 52.3433C177.547 52.4722 177.509 52.6082 177.509 52.7515C177.509 52.8589 177.527 52.9556 177.563 53.0415C177.602 53.1239 177.67 53.2008 177.767 53.2725C177.863 53.3405 177.999 53.4049 178.175 53.4658C178.35 53.5267 178.574 53.5876 178.846 53.6484C179.323 53.7559 179.715 53.8848 180.023 54.0352C180.331 54.1855 180.56 54.37 180.71 54.5884C180.86 54.8068 180.936 55.0718 180.936 55.3833C180.936 55.6375 180.882 55.8703 180.775 56.0815C180.671 56.2928 180.519 56.4754 180.318 56.6294C180.121 56.7798 179.885 56.8979 179.609 56.9839C179.337 57.0662 179.031 57.1074 178.691 57.1074C178.179 57.1074 177.745 57.0161 177.391 56.8335C177.036 56.6509 176.768 56.4146 176.585 56.1245C176.402 55.8345 176.311 55.5283 176.311 55.2061H177.31C177.325 55.4782 177.403 55.6948 177.547 55.856C177.69 56.0135 177.865 56.1263 178.073 56.1943C178.281 56.2588 178.486 56.291 178.691 56.291C178.963 56.291 179.19 56.2552 179.373 56.1836C179.559 56.112 179.7 56.0135 179.797 55.8882C179.894 55.7629 179.942 55.6196 179.942 55.4585ZM186.452 57H185.458V50.5762C185.458 50.1572 185.533 49.8045 185.684 49.5181C185.838 49.228 186.058 49.0096 186.344 48.8628C186.631 48.7124 186.971 48.6372 187.365 48.6372C187.479 48.6372 187.594 48.6444 187.709 48.6587C187.827 48.673 187.941 48.6945 188.052 48.7231L187.999 49.5342C187.923 49.5163 187.838 49.5037 187.741 49.4966C187.648 49.4894 187.555 49.4858 187.462 49.4858C187.25 49.4858 187.068 49.5288 186.914 49.6147C186.763 49.6971 186.649 49.8188 186.57 49.98C186.491 50.1411 186.452 50.3398 186.452 50.5762V57ZM187.687 51.1885V51.9512H184.54V51.1885H187.687ZM188.53 54.1587V54.0352C188.53 53.6162 188.591 53.2277 188.713 52.8696C188.835 52.508 189.01 52.1947 189.239 51.9297C189.469 51.6611 189.746 51.4535 190.072 51.3066C190.398 51.1562 190.763 51.0811 191.168 51.0811C191.576 51.0811 191.943 51.1562 192.269 51.3066C192.598 51.4535 192.877 51.6611 193.107 51.9297C193.339 52.1947 193.517 52.508 193.638 52.8696C193.76 53.2277 193.821 53.6162 193.821 54.0352V54.1587C193.821 54.5776 193.76 54.9661 193.638 55.3242C193.517 55.6823 193.339 55.9956 193.107 56.2642C192.877 56.5291 192.6 56.7368 192.274 56.8872C191.952 57.034 191.587 57.1074 191.178 57.1074C190.77 57.1074 190.403 57.034 190.077 56.8872C189.751 56.7368 189.472 56.5291 189.239 56.2642C189.01 55.9956 188.835 55.6823 188.713 55.3242C188.591 54.9661 188.53 54.5776 188.53 54.1587ZM189.524 54.0352V54.1587C189.524 54.4487 189.558 54.7227 189.626 54.9805C189.694 55.2347 189.796 55.4603 189.932 55.6572C190.072 55.8542 190.246 56.0099 190.453 56.1245C190.661 56.2355 190.903 56.291 191.178 56.291C191.45 56.291 191.689 56.2355 191.893 56.1245C192.1 56.0099 192.272 55.8542 192.408 55.6572C192.544 55.4603 192.646 55.2347 192.714 54.9805C192.786 54.7227 192.822 54.4487 192.822 54.1587V54.0352C192.822 53.7487 192.786 53.4784 192.714 53.2241C192.646 52.9663 192.543 52.7389 192.403 52.542C192.267 52.3415 192.095 52.1839 191.887 52.0693C191.683 51.9548 191.443 51.8975 191.168 51.8975C190.895 51.8975 190.656 51.9548 190.448 52.0693C190.244 52.1839 190.072 52.3415 189.932 52.542C189.796 52.7389 189.694 52.9663 189.626 53.2241C189.558 53.4784 189.524 53.7487 189.524 54.0352ZM196.061 52.1016V57H195.067V51.1885H196.034L196.061 52.1016ZM197.876 51.1562L197.871 52.0801C197.788 52.0622 197.71 52.0514 197.634 52.0479C197.563 52.0407 197.48 52.0371 197.387 52.0371C197.158 52.0371 196.956 52.0729 196.78 52.1445C196.605 52.2161 196.456 52.3164 196.335 52.4453C196.213 52.5742 196.116 52.7282 196.045 52.9072C195.977 53.0827 195.932 53.276 195.91 53.4873L195.631 53.6484C195.631 53.2975 195.665 52.9681 195.733 52.6602C195.805 52.3522 195.914 52.0801 196.061 51.8438C196.207 51.6038 196.394 51.4176 196.619 51.2852C196.848 51.1491 197.121 51.0811 197.436 51.0811C197.507 51.0811 197.59 51.09 197.683 51.1079C197.776 51.1222 197.84 51.1383 197.876 51.1562ZM203.156 56.3984L204.773 51.1885H205.836L203.505 57.897C203.451 58.0402 203.38 58.1942 203.29 58.3589C203.204 58.5272 203.093 58.6865 202.957 58.8369C202.821 58.9873 202.656 59.109 202.463 59.2021C202.273 59.2988 202.046 59.3472 201.781 59.3472C201.702 59.3472 201.602 59.3364 201.48 59.3149C201.358 59.2935 201.272 59.2756 201.222 59.2612L201.217 58.4556C201.246 58.4591 201.29 58.4627 201.351 58.4663C201.416 58.4735 201.46 58.4771 201.485 58.4771C201.711 58.4771 201.903 58.4466 202.06 58.3857C202.218 58.3285 202.35 58.23 202.458 58.0903C202.569 57.9543 202.664 57.7663 202.742 57.5264L203.156 56.3984ZM201.969 51.1885L203.478 55.7002L203.736 56.7476L203.022 57.1128L200.884 51.1885H201.969ZM206.384 54.1587V54.0352C206.384 53.6162 206.445 53.2277 206.567 52.8696C206.688 52.508 206.864 52.1947 207.093 51.9297C207.322 51.6611 207.6 51.4535 207.925 51.3066C208.251 51.1562 208.616 51.0811 209.021 51.0811C209.429 51.0811 209.796 51.1562 210.122 51.3066C210.452 51.4535 210.731 51.6611 210.96 51.9297C211.193 52.1947 211.37 52.508 211.492 52.8696C211.614 53.2277 211.674 53.6162 211.674 54.0352V54.1587C211.674 54.5776 211.614 54.9661 211.492 55.3242C211.37 55.6823 211.193 55.9956 210.96 56.2642C210.731 56.5291 210.453 56.7368 210.128 56.8872C209.805 57.034 209.44 57.1074 209.032 57.1074C208.624 57.1074 208.257 57.034 207.931 56.8872C207.605 56.7368 207.326 56.5291 207.093 56.2642C206.864 55.9956 206.688 55.6823 206.567 55.3242C206.445 54.9661 206.384 54.5776 206.384 54.1587ZM207.378 54.0352V54.1587C207.378 54.4487 207.412 54.7227 207.48 54.9805C207.548 55.2347 207.65 55.4603 207.786 55.6572C207.925 55.8542 208.099 56.0099 208.307 56.1245C208.514 56.2355 208.756 56.291 209.032 56.291C209.304 56.291 209.542 56.2355 209.746 56.1245C209.954 56.0099 210.126 55.8542 210.262 55.6572C210.398 55.4603 210.5 55.2347 210.568 54.9805C210.64 54.7227 210.675 54.4487 210.675 54.1587V54.0352C210.675 53.7487 210.64 53.4784 210.568 53.2241C210.5 52.9663 210.396 52.7389 210.256 52.542C210.12 52.3415 209.949 52.1839 209.741 52.0693C209.537 51.9548 209.297 51.8975 209.021 51.8975C208.749 51.8975 208.509 51.9548 208.301 52.0693C208.097 52.1839 207.925 52.3415 207.786 52.542C207.65 52.7389 207.548 52.9663 207.48 53.2241C207.412 53.4784 207.378 53.7487 207.378 54.0352ZM216.476 55.6572V51.1885H217.475V57H216.525L216.476 55.6572ZM216.664 54.4326L217.078 54.4219C217.078 54.8086 217.037 55.1667 216.954 55.4961C216.875 55.8219 216.747 56.1048 216.568 56.3447C216.388 56.5846 216.154 56.7726 215.864 56.9087C215.574 57.0412 215.221 57.1074 214.806 57.1074C214.523 57.1074 214.263 57.0662 214.027 56.9839C213.794 56.9015 213.594 56.7744 213.425 56.6025C213.257 56.4307 213.126 56.2069 213.033 55.9312C212.944 55.6554 212.899 55.3242 212.899 54.9375V51.1885H213.893V54.9482C213.893 55.2096 213.921 55.4263 213.979 55.5981C214.04 55.7664 214.12 55.9007 214.22 56.001C214.324 56.0977 214.439 56.1657 214.564 56.2051C214.693 56.2445 214.825 56.2642 214.962 56.2642C215.384 56.2642 215.719 56.1836 215.966 56.0225C216.213 55.8577 216.39 55.6375 216.498 55.3618C216.609 55.0825 216.664 54.7728 216.664 54.4326ZM219.984 52.1016V57H218.99V51.1885H219.957L219.984 52.1016ZM221.799 51.1562L221.794 52.0801C221.711 52.0622 221.632 52.0514 221.557 52.0479C221.486 52.0407 221.403 52.0371 221.31 52.0371C221.081 52.0371 220.879 52.0729 220.703 52.1445C220.528 52.2161 220.379 52.3164 220.257 52.4453C220.136 52.5742 220.039 52.7282 219.967 52.9072C219.899 53.0827 219.855 53.276 219.833 53.4873L219.554 53.6484C219.554 53.2975 219.588 52.9681 219.656 52.6602C219.727 52.3522 219.837 52.0801 219.984 51.8438C220.13 51.6038 220.317 51.4176 220.542 51.2852C220.771 51.1491 221.043 51.0811 221.359 51.0811C221.43 51.0811 221.512 51.09 221.606 51.1079C221.699 51.1222 221.763 51.1383 221.799 51.1562ZM226.44 52.3057V59.2344H225.441V51.1885H226.354L226.44 52.3057ZM230.355 54.0459V54.1587C230.355 54.5812 230.305 54.9733 230.205 55.335C230.104 55.693 229.958 56.0046 229.764 56.2695C229.575 56.5345 229.34 56.7404 229.061 56.8872C228.781 57.034 228.461 57.1074 228.099 57.1074C227.73 57.1074 227.405 57.0465 227.122 56.9248C226.839 56.8031 226.599 56.6258 226.402 56.3931C226.205 56.1603 226.047 55.881 225.929 55.5552C225.815 55.2293 225.736 54.8623 225.693 54.4541V53.8525C225.736 53.4229 225.817 53.0379 225.935 52.6978C226.053 52.3576 226.209 52.0675 226.402 51.8276C226.599 51.5841 226.837 51.3997 227.116 51.2744C227.396 51.1455 227.718 51.0811 228.083 51.0811C228.448 51.0811 228.772 51.1527 229.055 51.2959C229.338 51.4355 229.576 51.6361 229.77 51.8975C229.963 52.1589 230.108 52.4722 230.205 52.8374C230.305 53.1991 230.355 53.6019 230.355 54.0459ZM229.356 54.1587V54.0459C229.356 53.7559 229.326 53.4837 229.265 53.2295C229.204 52.9717 229.109 52.7461 228.98 52.5527C228.855 52.3558 228.694 52.2018 228.497 52.0908C228.3 51.9762 228.065 51.9189 227.793 51.9189C227.542 51.9189 227.324 51.9619 227.138 52.0479C226.955 52.1338 226.799 52.2502 226.671 52.397C226.542 52.5402 226.436 52.7049 226.354 52.8911C226.275 53.0737 226.216 53.2635 226.176 53.4604V54.8516C226.248 55.1022 226.348 55.3385 226.477 55.5605C226.606 55.779 226.778 55.9562 226.993 56.0923C227.208 56.2248 227.478 56.291 227.804 56.291C228.072 56.291 228.303 56.2355 228.497 56.1245C228.694 56.0099 228.855 55.8542 228.98 55.6572C229.109 55.4603 229.204 55.2347 229.265 54.9805C229.326 54.7227 229.356 54.4487 229.356 54.1587ZM234.034 57.1074C233.63 57.1074 233.263 57.0394 232.933 56.9033C232.607 56.7637 232.326 56.5685 232.09 56.3179C231.857 56.0672 231.678 55.77 231.553 55.4263C231.428 55.0825 231.365 54.7065 231.365 54.2983V54.0728C231.365 53.6001 231.435 53.1794 231.574 52.8105C231.714 52.4382 231.904 52.123 232.144 51.8652C232.384 51.6074 232.656 51.4123 232.96 51.2798C233.264 51.1473 233.58 51.0811 233.905 51.0811C234.321 51.0811 234.679 51.1527 234.98 51.2959C235.284 51.4391 235.533 51.6396 235.726 51.8975C235.92 52.1517 236.063 52.4525 236.156 52.7998C236.249 53.1436 236.296 53.5195 236.296 53.9277V54.3735H231.956V53.5625H235.302V53.4873C235.288 53.2295 235.234 52.9788 235.141 52.7354C235.051 52.4919 234.908 52.2913 234.711 52.1338C234.514 51.9762 234.246 51.8975 233.905 51.8975C233.68 51.8975 233.472 51.9458 233.282 52.0425C233.093 52.1356 232.93 52.2752 232.794 52.4614C232.658 52.6476 232.552 52.875 232.477 53.1436C232.401 53.4121 232.364 53.7218 232.364 54.0728V54.2983C232.364 54.5741 232.401 54.8337 232.477 55.0771C232.555 55.3171 232.668 55.5283 232.815 55.7109C232.965 55.8936 233.146 56.0368 233.358 56.1406C233.572 56.2445 233.816 56.2964 234.088 56.2964C234.439 56.2964 234.736 56.2248 234.98 56.0815C235.223 55.9383 235.436 55.7467 235.619 55.5068L236.22 55.9849C236.095 56.1746 235.936 56.3555 235.742 56.5273C235.549 56.6992 235.311 56.8389 235.028 56.9463C234.749 57.0537 234.417 57.1074 234.034 57.1074ZM239.889 51.1885V51.9512H236.747V51.1885H239.889ZM237.81 49.7759H238.804V55.5605C238.804 55.7575 238.834 55.9061 238.895 56.0063C238.956 56.1066 239.035 56.1729 239.131 56.2051C239.228 56.2373 239.332 56.2534 239.443 56.2534C239.525 56.2534 239.611 56.2463 239.701 56.2319C239.794 56.214 239.864 56.1997 239.91 56.189L239.916 57C239.837 57.0251 239.733 57.0483 239.604 57.0698C239.479 57.0949 239.327 57.1074 239.148 57.1074C238.904 57.1074 238.68 57.0591 238.476 56.9624C238.272 56.8657 238.109 56.7046 237.987 56.479C237.869 56.2498 237.81 55.9419 237.81 55.5552V49.7759ZM244.438 55.4585C244.438 55.3153 244.406 55.1828 244.341 55.061C244.281 54.9357 244.153 54.8229 243.96 54.7227C243.77 54.6188 243.484 54.5293 243.101 54.4541C242.778 54.3861 242.487 54.3055 242.225 54.2124C241.967 54.1193 241.747 54.0065 241.565 53.874C241.386 53.7415 241.248 53.5858 241.151 53.4067C241.054 53.2277 241.006 53.0182 241.006 52.7783C241.006 52.5492 241.056 52.3325 241.156 52.1284C241.26 51.9243 241.405 51.7435 241.591 51.5859C241.781 51.4284 242.009 51.3049 242.274 51.2153C242.539 51.1258 242.834 51.0811 243.16 51.0811C243.625 51.0811 244.023 51.1634 244.352 51.3281C244.682 51.4928 244.934 51.7131 245.109 51.9888C245.285 52.2609 245.373 52.5635 245.373 52.8965H244.379C244.379 52.7354 244.331 52.5796 244.234 52.4292C244.141 52.2752 244.003 52.1481 243.82 52.0479C243.641 51.9476 243.421 51.8975 243.16 51.8975C242.884 51.8975 242.66 51.9404 242.488 52.0264C242.32 52.1087 242.197 52.2144 242.118 52.3433C242.043 52.4722 242.005 52.6082 242.005 52.7515C242.005 52.8589 242.023 52.9556 242.059 53.0415C242.098 53.1239 242.166 53.2008 242.263 53.2725C242.359 53.3405 242.496 53.4049 242.671 53.4658C242.846 53.5267 243.07 53.5876 243.342 53.6484C243.819 53.7559 244.211 53.8848 244.519 54.0352C244.827 54.1855 245.056 54.37 245.206 54.5884C245.357 54.8068 245.432 55.0718 245.432 55.3833C245.432 55.6375 245.378 55.8703 245.271 56.0815C245.167 56.2928 245.015 56.4754 244.814 56.6294C244.617 56.7798 244.381 56.8979 244.105 56.9839C243.833 57.0662 243.527 57.1074 243.187 57.1074C242.675 57.1074 242.241 57.0161 241.887 56.8335C241.532 56.6509 241.264 56.4146 241.081 56.1245C240.899 55.8345 240.807 55.5283 240.807 55.2061H241.806C241.821 55.4782 241.899 55.6948 242.043 55.856C242.186 56.0135 242.361 56.1263 242.569 56.1943C242.777 56.2588 242.983 56.291 243.187 56.291C243.459 56.291 243.686 56.2552 243.869 56.1836C244.055 56.112 244.196 56.0135 244.293 55.8882C244.39 55.7629 244.438 55.6196 244.438 55.4585ZM246.753 56.4736C246.753 56.3053 246.805 56.1639 246.909 56.0493C247.016 55.9312 247.17 55.8721 247.371 55.8721C247.571 55.8721 247.723 55.9312 247.827 56.0493C247.935 56.1639 247.988 56.3053 247.988 56.4736C247.988 56.6383 247.935 56.778 247.827 56.8926C247.723 57.0072 247.571 57.0645 247.371 57.0645C247.17 57.0645 247.016 57.0072 246.909 56.8926C246.805 56.778 246.753 56.6383 246.753 56.4736Z" fill="black"/>
</svg>
